<?xml version="1.0" encoding="UTF-8"?>
<svg width="117px" height="32px" viewBox="0 0 117 32" version="1.1" xmlns="http://www.w3.org/2000/svg" xmlns:xlink="http://www.w3.org/1999/xlink">
    <!-- Generator: Sketch 51.2 (57519) - http://www.bohemiancoding.com/sketch -->
    <title>Slice 1</title>
    <desc>Created with Sketch.</desc>
    <defs>
        <polygon id="path-1" points="0.06 0.022 10.599 0.022 10.599 21 0.06 21"></polygon>
    </defs>
    <g id="Page-1" stroke="none" stroke-width="1" fill="none" fill-rule="evenodd">
        <g id="JonandJess_CMYK_Logotype">
            <g id="Group-3" transform="translate(0.000000, 11.000000)">
                <mask id="mask-2" fill="white">
                    <use xlink:href="#path-1"></use>
                </mask>
                <g id="Clip-2"></g>
                <path d="M10.599,0.022 L10.599,11.999 C10.599,14.112 10.446,16.726 10.144,17.632 C9.84,18.536 9.104,19.325 7.934,19.995 C6.765,20.665 5.353,21 3.699,21 C2.613,21 1.725,20.81 1.035,20.428 C0.345,20.046 0,19.518 0,18.843 C0,18.343 0.179,17.927 0.536,17.595 C0.893,17.262 1.326,17.096 1.835,17.096 C2.696,17.096 3.283,17.541 3.597,18.432 C3.812,19.028 4.139,19.327 4.58,19.327 C5.049,19.327 5.38,19.079 5.571,18.585 C5.761,18.091 5.857,17.052 5.857,15.466 L5.857,4.66 C5.857,3.936 5.742,3.432 5.512,3.148 C5.282,2.864 4.761,2.722 3.949,2.722 L3.494,2.722 L3.494,1.151 L10.599,0.022" id="Fill-1" fill="#0B0B09" mask="url(#mask-2)"></path>
            </g>
            <path d="M17.445,17.333 C17.445,19.212 17.619,20.525 17.966,21.274 C18.313,22.023 18.918,22.398 19.779,22.398 C20.474,22.398 21.029,22.085 21.445,21.458 C21.861,20.831 22.069,19.496 22.069,17.45 C22.069,15.591 21.883,14.331 21.511,13.671 C21.139,13.01 20.552,12.68 19.75,12.68 C19.114,12.68 18.57,12.961 18.12,13.524 C17.67,14.087 17.445,15.357 17.445,17.333 Z M12.41,17.48 C12.41,15.464 13.125,13.883 14.553,12.739 C15.982,11.594 17.709,11.022 19.735,11.022 C21.711,11.022 23.434,11.577 24.902,12.687 C26.37,13.798 27.104,15.4 27.104,17.494 C27.104,19.482 26.384,21.064 24.946,22.243 C23.507,23.423 21.766,24.012 19.72,24.012 C17.724,24.012 16.006,23.452 14.568,22.331 C13.129,21.21 12.41,19.595 12.41,17.48 Z" id="Fill-4" fill="#0B0B09"></path>
            <path d="M34.43,15.278 L34.43,20.048 C34.43,20.733 34.532,21.224 34.738,21.517 C34.943,21.81 35.31,21.962 35.839,21.972 L35.839,23.528 L27.619,23.528 L27.619,21.972 C28.47,21.972 29.013,21.837 29.248,21.567 C29.483,21.299 29.601,20.792 29.601,20.048 L29.601,15.939 C29.601,15.195 29.485,14.684 29.255,14.405 C29.025,14.126 28.48,13.986 27.619,13.986 L27.619,12.431 L34.136,11.359 C34.302,11.741 34.4,12.328 34.43,13.121 C35.076,12.416 35.753,11.89 36.463,11.542 C37.172,11.194 37.909,11.022 38.672,11.022 C40.042,11.022 41.119,11.4 41.902,12.159 C42.684,12.917 43.075,13.957 43.075,15.278 L43.075,20.048 C43.075,20.782 43.196,21.286 43.436,21.562 C43.675,21.835 44.196,21.972 44.999,21.972 L44.999,23.528 L36.822,23.528 L36.822,21.972 C37.233,21.952 37.579,21.835 37.857,21.619 C38.136,21.404 38.276,20.881 38.276,20.048 L38.276,15.645 C38.276,14.842 38.166,14.295 37.945,14.002 C37.725,13.708 37.409,13.561 36.999,13.561 C36.587,13.561 36.167,13.703 35.736,13.986 C35.306,14.27 34.87,14.701 34.43,15.278" id="Fill-5" fill="#0B0B09"></path>
            <path d="M54.204,10.434 C55.397,9.612 55.995,8.736 55.995,7.807 C55.995,7.161 55.811,6.647 55.444,6.265 C55.077,5.884 54.629,5.693 54.101,5.693 C53.7,5.693 53.343,5.813 53.029,6.052 C52.716,6.293 52.56,6.671 52.56,7.19 C52.56,8.042 53.108,9.123 54.204,10.434 Z M56.273,20.401 L51.547,14.221 C50.578,14.828 50.093,15.606 50.093,16.555 C50.093,17.593 50.495,18.635 51.297,19.682 C52.1,20.73 53.034,21.253 54.101,21.253 C54.894,21.253 55.618,20.97 56.273,20.401 Z M57.55,21.723 C55.574,23.21 53.66,23.954 51.811,23.954 C50.206,23.954 48.821,23.427 47.657,22.376 C46.492,21.323 45.91,20.073 45.91,18.625 C45.91,16.364 47.447,14.378 50.519,12.666 C49.531,11.1 49.037,9.71 49.037,8.497 C49.037,7.087 49.487,5.986 50.387,5.194 C51.288,4.401 52.491,4.004 53.998,4.004 C55.349,4.004 56.442,4.327 57.278,4.974 C58.116,5.62 58.534,6.505 58.534,7.63 C58.534,9.412 57.477,10.85 55.363,11.946 L59.415,17.245 C60.482,15.738 61.015,14.657 61.015,14.002 C61.015,13.346 60.584,13.003 59.723,12.973 L59.723,11.373 L65.711,11.373 L65.711,12.973 C64.988,13.121 64.423,13.387 64.016,13.774 C63.611,14.16 63.099,14.853 62.483,15.851 C61.807,16.956 61.162,17.901 60.544,18.684 C61.298,19.672 61.89,20.348 62.321,20.71 C62.751,21.071 63.197,21.253 63.657,21.253 C64.635,21.253 65.194,20.567 65.331,19.197 L66.96,19.197 C66.93,20.821 66.465,22.016 65.565,22.779 C64.665,23.542 63.569,23.925 62.277,23.925 C60.544,23.925 58.97,23.191 57.55,21.723 Z" id="Fill-6" fill="#0B0B09"></path>
            <path d="M74.754,11.022 L74.754,22.999 C74.754,25.112 74.602,27.726 74.299,28.632 C73.996,29.536 73.259,30.325 72.09,30.995 C70.92,31.665 69.508,32 67.855,32 C66.769,32 65.88,31.81 65.191,31.428 C64.501,31.046 64.156,30.518 64.156,29.843 C64.156,29.343 64.335,28.927 64.692,28.595 C65.049,28.262 65.482,28.096 65.991,28.096 C66.852,28.096 67.439,28.541 67.752,29.432 C67.967,30.028 68.295,30.327 68.736,30.327 C69.206,30.327 69.536,30.079 69.727,29.585 C69.918,29.091 70.013,28.052 70.013,26.466 L70.013,15.66 C70.013,14.936 69.898,14.432 69.669,14.148 C69.438,13.864 68.917,13.722 68.105,13.722 L67.65,13.722 L67.65,12.151 L74.754,11.022" id="Fill-7" fill="#0B0B09"></path>
            <path d="M81.54,15.895 L85.254,15.895 C85.195,13.732 84.564,12.65 83.361,12.65 C82.753,12.65 82.298,12.92 81.995,13.458 C81.692,13.997 81.54,14.808 81.54,15.895 Z M81.555,17.378 C81.555,18.973 81.826,20.171 82.37,20.974 C82.913,21.776 83.727,22.177 84.813,22.177 C85.968,22.177 87.03,21.59 87.999,20.416 L89.365,21.237 C88.806,22.04 88.006,22.703 86.963,23.228 C85.922,23.751 84.77,24.012 83.507,24.012 C81.57,24.012 79.911,23.423 78.531,22.243 C77.151,21.064 76.461,19.472 76.461,17.466 C76.461,15.459 77.129,13.883 78.465,12.739 C79.801,11.594 81.408,11.022 83.288,11.022 C85.175,11.022 86.724,11.547 87.933,12.599 C89.141,13.651 89.745,15.244 89.745,17.378 L81.555,17.378 Z" id="Fill-8" fill="#0B0B09"></path>
            <path d="M91.524,24.012 L91.421,20.02 L92.86,20.02 C93.624,21.673 95.022,22.5 97.058,22.5 C97.909,22.5 98.614,22.354 99.171,22.06 C99.73,21.767 100.009,21.434 100.009,21.062 C100.009,20.738 99.857,20.489 99.553,20.313 C99.241,20.147 98.54,19.95 97.455,19.726 C95.771,19.384 94.528,19.058 93.726,18.749 C92.924,18.441 92.278,17.967 91.788,17.326 C91.299,16.685 91.054,15.953 91.054,15.131 C91.054,13.908 91.554,12.917 92.551,12.159 C93.549,11.4 94.885,11.022 96.559,11.022 C97.85,11.022 99.168,11.275 100.507,11.785 C100.743,11.56 100.928,11.305 101.066,11.022 L102.284,11.022 L102.417,14.662 L101.242,14.662 C100.488,13.164 98.987,12.416 96.735,12.416 C96.002,12.416 95.399,12.535 94.929,12.775 C94.46,13.015 94.224,13.321 94.224,13.692 C94.224,14.084 94.415,14.373 94.798,14.559 C95.169,14.745 96.079,14.98 97.527,15.263 C99.035,15.567 100.167,15.875 100.926,16.189 C101.684,16.502 102.281,16.959 102.716,17.561 C103.153,18.162 103.371,18.86 103.371,19.652 C103.371,20.935 102.802,21.982 101.667,22.794 C100.532,23.607 99.127,24.012 97.455,24.012 C96.172,24.012 94.832,23.738 93.432,23.191 C93.168,23.386 92.972,23.66 92.844,24.012 L91.524,24.012" id="Fill-9" fill="#0B0B09"></path>
            <path d="M105.034,24.012 L104.931,20.02 L106.37,20.02 C107.133,21.673 108.533,22.5 110.568,22.5 C111.419,22.5 112.125,22.354 112.681,22.06 C113.24,21.767 113.519,21.434 113.519,21.062 C113.519,20.738 113.367,20.489 113.063,20.313 C112.75,20.147 112.05,19.95 110.965,19.726 C109.282,19.384 108.039,19.058 107.237,18.749 C106.433,18.441 105.789,17.967 105.298,17.326 C104.809,16.685 104.565,15.953 104.565,15.131 C104.565,13.908 105.064,12.917 106.062,12.159 C107.06,11.4 108.396,11.022 110.069,11.022 C111.361,11.022 112.677,11.275 114.017,11.785 C114.252,11.56 114.439,11.305 114.576,11.022 L115.794,11.022 L115.925,14.662 L114.751,14.662 C113.999,13.164 112.497,12.416 110.245,12.416 C109.511,12.416 108.909,12.535 108.44,12.775 C107.97,13.015 107.735,13.321 107.735,13.692 C107.735,14.084 107.926,14.373 108.308,14.559 C108.679,14.745 109.589,14.98 111.038,15.263 C112.544,15.567 113.678,15.875 114.436,16.189 C115.195,16.502 115.792,16.959 116.226,17.561 C116.662,18.162 116.88,18.86 116.88,19.652 C116.88,20.935 116.313,21.982 115.178,22.794 C114.042,23.607 112.637,24.012 110.965,24.012 C109.682,24.012 108.342,23.738 106.942,23.191 C106.678,23.386 106.482,23.66 106.355,24.012 L105.034,24.012" id="Fill-10" fill="#0B0B09"></path>
            <path d="M4.11,4.588 C4.11,3.58 4.471,2.71 5.193,1.981 C5.916,1.252 6.781,0.887 7.79,0.887 C8.799,0.887 9.661,1.249 10.376,1.971 C11.091,2.693 11.658,3.565 11.658,4.588 C11.658,5.61 11.091,6.483 10.376,7.204 C9.661,7.928 8.799,8.288 7.79,8.288 C6.781,8.288 5.916,7.923 5.193,7.194 C4.471,6.466 4.11,5.596 4.11,4.588" id="Fill-11" fill="#1C4F86"></path>
            <path d="M68.359,4.588 C68.359,3.563 68.726,2.68 69.461,1.939 C70.195,1.197 71.075,0.826 72.1,0.826 C73.127,0.826 74.002,1.193 74.73,1.928 C75.456,2.663 75.821,3.548 75.821,4.588 C75.821,5.627 75.456,6.513 74.73,7.249 C74.002,7.982 73.127,8.349 72.1,8.349 C71.075,8.349 70.195,7.979 69.461,7.238 C68.726,6.496 68.359,5.613 68.359,4.588" id="Fill-12" fill="#DF572A"></path>
        </g>
    </g>
</svg>